<?xml version="1.0" encoding="UTF-8"?>
<svg id="Capa_2" data-name="Capa 2" xmlns="http://www.w3.org/2000/svg" viewBox="0 0 256.46 47.4">
  <defs>
    <style>
      .cls-1 {
        fill: #fff;
        stroke-width: 0px;
      }
    </style>
  </defs>
  <g id="Capa_1-2" data-name="Capa 1">
    <g>
      <path class="cls-1" d="m0,27.01C0,12.91,10.86,0,26.68,0c12.65,0,21.52,8.28,20.06,19.86h-12.25c0-5.43-3.24-8.74-8.61-8.74-8.01,0-13.44,7.22-13.44,15.1,0,6.62,3.77,10.06,9.14,10.06s10-3.58,11.65-8.74h12.18c-2.65,11.78-11.65,19.86-24.23,19.86S0,39.86,0,27.01Z"/>
      <path class="cls-1" d="m51.04,28.47L56.01.53h12.05l-4.9,27.68c-.93,5.1,1.32,7.94,5.76,7.94s7.75-2.85,8.67-7.94L82.49.53h12.05l-4.97,27.94c-2.12,11.92-9.6,18.94-21.58,18.94s-19.07-7.02-16.95-18.94Z"/>
      <path class="cls-1" d="m123.93,46.88l-1.19-8.87h-16.88l-4.37,8.87h-12.78L112.61.53h15.82l7.48,46.35h-11.98Zm-13.24-18.8h10.66l-2.32-16.88-8.34,16.88Z"/>
      <path class="cls-1" d="m140.68,27.01c0-14.1,10.86-27.01,26.68-27.01,12.65,0,21.52,8.28,20.06,19.86h-12.25c0-5.43-3.24-8.74-8.61-8.74-8.01,0-13.44,7.22-13.44,15.1,0,6.62,3.77,10.06,9.14,10.06s10-3.58,11.65-8.74h12.18c-2.65,11.78-11.65,19.86-24.23,19.86s-21.19-7.55-21.19-20.39Z"/>
      <path class="cls-1" d="m185,46.88l19.93-22.71L192.81.53h13.31l9.14,18.01h4.57l3.18-18.01h12.05l-8.21,46.35h-12.05l3.05-17.35h-3.24l-15.36,17.35h-14.23Z"/>
      <path class="cls-1" d="m236.07,41.18c0-4.57,3.84-8.54,8.54-8.54,3.58,0,6.36,2.32,6.36,6.22,0,4.57-3.84,8.54-8.54,8.54-3.64,0-6.36-2.38-6.36-6.22Zm4.24-11.65l4.24-29h11.92l-6.09,29h-10.06Z"/>
    </g>
  </g>
</svg>